<svg xmlns="http://www.w3.org/2000/svg" xmlns:xlink="http://www.w3.org/1999/xlink" version="1.1" style="enable-background:new 0 0 488.3 488.3;" xml:space="preserve" width="488.3" height="488.3"><rect id="backgroundrect" width="100%" height="100%" x="0" y="0" fill="none" stroke="none"/>
















<g class="currentLayer" style=""><title>Layer 1</title><g id="svg_1" class="" fill="#6d6d6d" fill-opacity="1">
	<g id="svg_2" fill="#6d6d6d" fill-opacity="1">
		<path d="M314.25,85.4h-227c-21.3,0-38.6,17.3-38.6,38.6v325.7c0,21.3,17.3,38.6,38.6,38.6h227c21.3,0,38.6-17.3,38.6-38.6V124    C352.75,102.7,335.45,85.4,314.25,85.4z M325.75,449.6c0,6.4-5.2,11.6-11.6,11.6h-227c-6.4,0-11.6-5.2-11.6-11.6V124    c0-6.4,5.2-11.6,11.6-11.6h227c6.4,0,11.6,5.2,11.6,11.6V449.6z" id="svg_3" fill="#6d6d6d" fill-opacity="1"/>
		<path d="M401.05,0h-227c-21.3,0-38.6,17.3-38.6,38.6c0,7.5,6,13.5,13.5,13.5s13.5-6,13.5-13.5c0-6.4,5.2-11.6,11.6-11.6h227    c6.4,0,11.6,5.2,11.6,11.6v325.7c0,6.4-5.2,11.6-11.6,11.6c-7.5,0-13.5,6-13.5,13.5s6,13.5,13.5,13.5c21.3,0,38.6-17.3,38.6-38.6    V38.6C439.65,17.3,422.35,0,401.05,0z" id="svg_4" fill="#6d6d6d" fill-opacity="1"/>
	</g>
</g><g id="svg_5" class="" fill="#6d6d6d" fill-opacity="1">
</g><g id="svg_6" class="" fill="#6d6d6d" fill-opacity="1">
</g><g id="svg_7" class="" fill="#6d6d6d" fill-opacity="1">
</g><g id="svg_8" class="" fill="#6d6d6d" fill-opacity="1">
</g><g id="svg_9" class="" fill="#6d6d6d" fill-opacity="1">
</g><g id="svg_10" class="" fill="#6d6d6d" fill-opacity="1">
</g><g id="svg_11" class="" fill="#6d6d6d" fill-opacity="1">
</g><g id="svg_12" class="" fill="#6d6d6d" fill-opacity="1">
</g><g id="svg_13" class="" fill="#6d6d6d" fill-opacity="1">
</g><g id="svg_14" class="" fill="#6d6d6d" fill-opacity="1">
</g><g id="svg_15" class="" fill="#6d6d6d" fill-opacity="1">
</g><g id="svg_16" class="" fill="#6d6d6d" fill-opacity="1">
</g><g id="svg_17" class="" fill="#6d6d6d" fill-opacity="1">
</g><g id="svg_18" class="" fill="#6d6d6d" fill-opacity="1">
</g><g id="svg_19" class="" fill="#6d6d6d" fill-opacity="1">
</g></g></svg>